<svg xmlns="http://www.w3.org/2000/svg" viewBox="0 0 134.49 18.75"><defs><style>.cls-1{fill:#f8ed30;}</style></defs><title>Asset 8ldpi</title><g id="Layer_2" data-name="Layer 2"><g id="Layer_1-2" data-name="Layer 1"><path class="cls-1" d="M0,17.76V5.27a5.27,5.27,0,0,1,1.41-3.8A4.84,4.84,0,0,1,5.07,0a4.53,4.53,0,0,1,4.1,2.45A5.67,5.67,0,0,1,11,.57,5,5,0,0,1,13.52,0,4.43,4.43,0,0,1,17.1,1.47a6.4,6.4,0,0,1,1.24,4.24V17.76H13.19V6.49a3,3,0,0,0-.13-1.11.53.53,0,0,0-.54-.28c-.51,0-.76.44-.76,1.3V17.76H6.6V6.49a2.77,2.77,0,0,0-.14-1.11.55.55,0,0,0-.54-.28c-.51,0-.77.46-.77,1.39V17.76Z"/><path class="cls-1" d="M29.68,0A8.54,8.54,0,0,1,36,2.68a8.83,8.83,0,0,1,2.63,6.41A8.78,8.78,0,0,1,36,15.54a9.15,9.15,0,0,1-12.89,0,8.81,8.81,0,0,1-2.66-6.44,8.7,8.7,0,0,1,2.68-6.45A9,9,0,0,1,29.68,0Zm-.15,5.1a3.58,3.58,0,0,0-2.7,1.17,3.92,3.92,0,0,0-1.12,2.82,3.92,3.92,0,0,0,1.12,2.82,3.72,3.72,0,0,0,5.41,0,4,4,0,0,0,1.11-2.83,4,4,0,0,0-1.11-2.83A3.61,3.61,0,0,0,29.53,5.1Z"/><path class="cls-1" d="M53.51.43,46,18.75,38.45.43h6L46,5.84,47.76.43Z"/><path class="cls-1" d="M59.79.43V17.76H54.64V.43Z"/><path class="cls-1" d="M72.5,7.17V11H69.14a1.68,1.68,0,0,0-1,.21.77.77,0,0,0-.29.68.78.78,0,0,0,.29.72,2.84,2.84,0,0,0,1.2.17h3.46v5h-4a6.28,6.28,0,0,1-4.36-1.36,5,5,0,0,1-1.51-3.95V5.66A5.11,5.11,0,0,1,64.33,1.8a5.61,5.61,0,0,1,4-1.37h4.48v5H69.54c-.88,0-1.33.29-1.33.86a.78.78,0,0,0,.32.71,2.34,2.34,0,0,0,1.13.19Z"/><path class="cls-1" d="M81.94,17.76V5.27a5.3,5.3,0,0,1,1.4-3.8A4.84,4.84,0,0,1,87,0a4.51,4.51,0,0,1,4.1,2.45A5.69,5.69,0,0,1,93,.57,4.94,4.94,0,0,1,95.46,0,4.44,4.44,0,0,1,99,1.47a6.4,6.4,0,0,1,1.24,4.24V17.76H95.13V6.49A2.89,2.89,0,0,0,95,5.38a.53.53,0,0,0-.54-.28c-.5,0-.76.44-.76,1.3V17.76H88.54V6.49a3,3,0,0,0-.14-1.11.58.58,0,0,0-.55-.28c-.51,0-.76.46-.76,1.39V17.76Z"/><path class="cls-1" d="M109.69,9.06v4.57H108.2v4.13h-5.15v-11a6.79,6.79,0,0,1,1.74-5A6.59,6.59,0,0,1,109.7,0a5.82,5.82,0,0,1,4.51,1.61,7.19,7.19,0,0,1,1.46,4.95v11.2h-5.16V6.91a2.91,2.91,0,0,0-.24-1.41.92.92,0,0,0-.86-.4c-.81,0-1.21.6-1.21,1.81V9.06Z"/><path class="cls-1" d="M118.43.43h5.16v10.3a2.35,2.35,0,0,0,.39,1.6,2.11,2.11,0,0,0,1.53.4h.26v5H124.4A5.81,5.81,0,0,1,120,16.12a6.35,6.35,0,0,1-1.58-4.57Z"/><path class="cls-1" d="M127.16.43h5.15v10.3a2.35,2.35,0,0,0,.39,1.6,2.15,2.15,0,0,0,1.53.4h.26v5h-1.37a5.81,5.81,0,0,1-4.39-1.64,6.34,6.34,0,0,1-1.57-4.57Z"/></g></g></svg>